<?xml version="1.0" encoding="utf-8"?>
<!-- Generator: Adobe Illustrator 18.0.0, SVG Export Plug-In . SVG Version: 6.00 Build 0)  -->
<!DOCTYPE svg PUBLIC "-//W3C//DTD SVG 1.1//EN" "http://www.w3.org/Graphics/SVG/1.1/DTD/svg11.dtd">
<svg version="1.1" id="Layer_1" xmlns="http://www.w3.org/2000/svg" xmlns:xlink="http://www.w3.org/1999/xlink" x="0px" y="0px"
	 viewBox="201 76.7 592 461" enable-background="new 201 76.7 592 461" xml:space="preserve">
<path fill="#FFFFFF" d="M543,267.4H362.9l90.6-90.6c12.4-12.4,12.4-32.9,0-45.3c-12.4-12.4-32.9-12.4-45.3,0L262.8,276.9l0,0
	c-1.4,1.4-2.9,3.1-3.9,5c-0.4,0.6-0.8,1.4-1.2,2.3c-0.6,1-1.2,2.1-1.7,3.3c-0.4,1-0.6,1.9-0.8,2.9c-0.4,1-0.6,2.1-0.8,3.1
	c-0.4,1.7-0.4,3.3-0.4,5c0,0.4-0.2,0.8-0.2,1.2c0,0.4,0.2,1,0.2,1.4c0,1.7,0.2,3.1,0.4,4.8c0.2,1.2,0.6,2.3,1,3.3
	c0.2,0.8,0.4,1.9,0.8,2.7c0.4,1.2,1.2,2.5,1.9,3.5c0.4,0.6,0.6,1.2,1,2.1c1.2,1.9,2.5,3.5,4.1,5l145.4,145.4
	c6.2,6.2,14.5,9.3,22.8,9.3s16.3-3.1,22.8-9.3c12.4-12.4,12.4-32.9,0-45.3L363.5,332h180.1c70.9,0,128.9,57.7,128.9,128.9
	c0,17.8,14.3,32.1,32.1,32.1c17.8,0,32.1-14.3,32.1-32.1C736,354.1,649.5,267.4,543,267.4z"/>
</svg>
