<?xml version="1.0" encoding="utf-8"?>
<!-- Generator: Adobe Illustrator 18.0.0, SVG Export Plug-In . SVG Version: 6.00 Build 0)  -->
<!DOCTYPE svg PUBLIC "-//W3C//DTD SVG 1.1//EN" "http://www.w3.org/Graphics/SVG/1.1/DTD/svg11.dtd">
<svg version="1.1" id="Layer_1" xmlns="http://www.w3.org/2000/svg" xmlns:xlink="http://www.w3.org/1999/xlink" x="0px" y="0px"
	 viewBox="213 49.7 811 617" enable-background="new 213 49.7 811 617" xml:space="preserve">
<path fill="#FFFFFF" d="M834.9,648.9c-68.5,0-131.5-40.3-160.1-102.9l-3.7-7.7l-7,4.8c-13.9,9.2-29.7,13.9-46.2,13.9
	c-16.1,0-32.2-4.8-46.2-13.9l-7-4.8l-3.7,7.7c-28.9,62.6-91.6,102.9-160.1,102.9c-97.4,0-176.6-79.1-176.6-176.6
	c0-24.2,4.8-47.3,14.3-69.6v-0.4l52.8-165.6v-0.4c0-0.7,0.4-1.5,0.7-2.2c15-41,48-72.9,89.8-87.6l3.3-1.1L392,125
	c0.4-1.1,0.4-1.8,0.7-2.2c13.6-37,49.5-62.3,89.4-62.3c52.4,0,95.2,42.9,95.2,95.2v54.9l9.9-4c10.3-4,20.1-5.9,30.4-5.9
	c10.3,0,20.5,1.8,30.4,5.9l9.9,4v-54.9c0-52.4,42.9-95.2,95.2-95.2c39.6,0,75.5,24.9,89.4,62.3c0.4,0.7,0.4,1.5,0.7,2.2l6.6,20.5
	l3.3,1.1c41.8,14.7,74.7,46.5,89.8,87.6c0.4,0.7,0.4,1.5,0.7,2.2v0.4l52.8,165.6v0.4c9.5,22,14.3,45.4,14.3,69.2
	C1011.4,569.8,932.3,648.9,834.9,648.9z M834.9,339.7c-72.9,0-132.6,59.3-132.6,132.6c0,72.9,59.3,132.6,132.6,132.6
	s132.6-59.3,132.6-132.6C967.5,399.1,908.1,339.7,834.9,339.7z M401.1,339.7c-73.3,0-132.6,59.3-132.6,132.6
	c0,72.9,59.3,132.6,132.6,132.6s132.6-59.3,132.6-132.6C533.7,399.1,474,339.7,401.1,339.7z M618,432c-22.3,0-40.3,18-40.3,40.3
	s18,40.3,40.3,40.3c22.3,0,40.3-18,40.3-40.3C658.3,450,640.3,432,618,432z M618,388.1c10.3,0,20.5,1.8,30.4,5.9l9.9,4V285.5
	c0-22.3-18-40.3-40.3-40.3c-22.3,0-40.3,18-40.3,40.3V398l9.9-4C597.9,389.9,607.7,388.1,618,388.1z M805.6,182.2
	c-56.8,0-102.9,46.2-102.9,102.9v69.6l12.5-11.4c33-30.8,75.5-47.6,120.2-47.6c25.6,0,50.6,5.5,74.4,16.5l15,7l-22.7-71.1v-0.4
	C886.2,208.6,847.7,182.2,805.6,182.2z M401.1,295.8c44.7,0,87.2,16.9,120.2,47.6l12.5,11.4v-69.6c0-56.8-46.2-102.9-102.9-102.9
	c-42.1,0-81,26.4-96,65.6c0,0-0.4,0.7-0.4,1.1l-22.3,70.7l15-7C350.6,301.2,375.5,295.8,401.1,295.8z M482.5,104.5
	c-16.9,0-32.6,8.8-42.5,23.1l-6.6,10.3l12.1,1.1c27.8,2.9,54.2,13.6,76.2,31.1l11.7,9.5v-23.8C533.7,127.6,510.7,104.5,482.5,104.5z
	 M702.3,179.6l11.7-9.5c22.3-17.6,48.7-28.2,76.2-31.1l12.1-1.1l-6.6-10.3c-9.5-14.7-25.6-23.1-42.5-23.1c-25.6,0-47.3,19-50.6,44
	h-0.4V179.6z M770,494.3c-12.1,0-22-9.9-22-22c0-48,38.8-86.8,86.8-86.8c12.1,0,22,9.9,22,22c0,12.1-9.9,22-22,22
	c-23.8,0-42.9,19.4-42.9,42.9C792,484.4,782.1,494.3,770,494.3z M336.3,494.3c-12.1,0-22-9.9-22-22c0-48,38.8-86.8,86.8-86.8
	c12.1,0,22,9.9,22,22c0,12.1-9.9,22-22,22c-23.8,0-42.9,19.4-42.9,42.9C358.3,484.4,348.4,494.3,336.3,494.3z"/>
</svg>
