<?xml version="1.0" encoding="utf-8"?>
<!-- Generator: Adobe Illustrator 18.0.0, SVG Export Plug-In . SVG Version: 6.00 Build 0)  -->
<!DOCTYPE svg PUBLIC "-//W3C//DTD SVG 1.1//EN" "http://www.w3.org/Graphics/SVG/1.1/DTD/svg11.dtd">
<svg version="1.1" id="Layer_1" xmlns="http://www.w3.org/2000/svg" xmlns:xlink="http://www.w3.org/1999/xlink" x="0px" y="0px"
	 viewBox="375 144.7 274 261" enable-background="new 375 144.7 274 261" xml:space="preserve">
<path fill="#FFFFFF" d="M637.1,260L519.9,147.9c-2.1-2-5-3.2-7.9-3.2c-3,0-5.8,1.1-7.9,3.2l-117.1,112c-2.2,2.1-3.5,5-3.5,8
	c-0.1,3.1,1.1,6,3.2,8.2c2.2,2.3,5.1,3.5,8.3,3.5c3,0,5.8-1.1,7.9-3.2l6.9-6.6v105.2c0,6.3,5.1,11.5,11.5,11.5h57.3
	c6.3,0,11.5-5.1,11.5-11.5v-60.1c0-12.2,9.9-22.1,22.1-22.1c12.2,0,22.1,9.9,22.1,22.1v60.1c0,6.3,5.1,11.5,11.5,11.5h57.3
	c6.3,0,11.5-5.1,11.5-11.5V269.9l6.9,6.6c2.1,2,5,3.2,7.9,3.2c3.2,0,6.1-1.3,8.3-3.5C641.8,271.6,641.6,264.3,637.1,260z M512,270.1
	c-24.8,0-45,20.2-45,45v48.7h-34.4V248l79.4-76l79.4,76v115.7H557v-48.7C557,290.2,536.8,270.1,512,270.1z"/>
</svg>
