<?xml version="1.0" encoding="utf-8"?>
<!-- Generator: Adobe Illustrator 18.0.0, SVG Export Plug-In . SVG Version: 6.00 Build 0)  -->
<!DOCTYPE svg PUBLIC "-//W3C//DTD SVG 1.1//EN" "http://www.w3.org/Graphics/SVG/1.1/DTD/svg11.dtd">
<svg version="1.1" id="Layer_1" xmlns="http://www.w3.org/2000/svg" xmlns:xlink="http://www.w3.org/1999/xlink" x="0px" y="0px"
	 viewBox="408 0 616 666.7" enable-background="new 408 0 616 666.7" xml:space="preserve">
<g>
	<path fill="#FFFFFF" d="M713.6,57.5c-157.6,0-285.8,128.2-285.8,285.8S556,629.2,713.6,629.2S999.3,501,999.3,343.4
		S871.1,57.5,713.6,57.5z M713.6,587.2c-134.6,0-244-109.5-244-244c0-134.6,109.5-244,244-244s244,109.5,244,244
		C957.6,477.8,848.2,587.2,713.6,587.2z"/>
	<path fill="#FFFFFF" d="M706.6,192.6c-10.7,0-20.4,4.2-28.6,12.5s-12.5,17.9-12.5,29.1c0,11.6,4.2,21.5,12.5,29.7
		c8.2,8.2,17.9,12.5,28.6,12.5c12,0,22.1-4.2,30.4-12.5c8-8.2,12.3-18.3,12.3-29.7c0-11.2-4-20.8-12.3-29.1
		C728.7,196.6,718.7,192.6,706.6,192.6z"/>
	<path fill="#FFFFFF" d="M706.6,301.3c-10.7,0-20.4,4-28.6,12c-8.2,8.2-12.5,18.1-12.5,30.2v122.7c0,11.8,4.2,21.9,12.5,29.9
		s17.9,12,28.6,12c12,0,22.1-4,30.4-12c8.2-8,12.3-17.9,12.3-29.9V343.6c0-12-4-22.1-12.3-30.2C728.7,305.3,718.7,301.3,706.6,301.3
		z"/>
</g>
</svg>
