<?xml version="1.0" encoding="utf-8"?>
<!-- Generator: Adobe Illustrator 18.0.0, SVG Export Plug-In . SVG Version: 6.00 Build 0)  -->
<!DOCTYPE svg PUBLIC "-//W3C//DTD SVG 1.1//EN" "http://www.w3.org/Graphics/SVG/1.1/DTD/svg11.dtd">
<svg version="1.1" id="Layer_1" xmlns="http://www.w3.org/2000/svg" xmlns:xlink="http://www.w3.org/1999/xlink" x="0px" y="0px"
	 viewBox="37 0 107 144" enable-background="new 37 0 107 144" xml:space="preserve">
<path fill="#231F20" d="M247.4,138.2c-0.1,0-0.3,0-0.4-0.1l-0.2-0.1C246.9,138.1,247.1,138.2,247.4,138.2z"/>
<path fill="#231F20" d="M249.6,138.1l-0.2,0.1c-0.1,0-0.3,0.1-0.4,0.1C249.2,138.2,249.4,138.1,249.6,138.1z"/>
<g>
	<path fill="#FD6A41" d="M91.4,6.7c-26.9-0.6-49.2,21-49.7,47.8c-0.2,9.6,2.4,18.9,7.7,27.1l0,0l33.2,51.9c1.8,2.6,4.7,4.3,7.7,4.3
		c3.3,0,6.1-1.6,7.7-4.3l33.2-51.7c5.1-7.7,7.7-16.9,7.7-26.5C139.2,28.9,117.8,7.1,91.4,6.7z M90.4,75.1C79,75.1,70,65.5,70.9,53.9
		c0.6-9.6,8.3-17.3,17.9-18.1c11.6-0.8,21.2,8.1,21.2,19.5C110.2,66.1,101.2,75.1,90.4,75.1z"/>
</g>
</svg>
