<?xml version="1.0" encoding="utf-8"?>
<!-- Generator: Adobe Illustrator 18.0.0, SVG Export Plug-In . SVG Version: 6.00 Build 0)  -->
<!DOCTYPE svg PUBLIC "-//W3C//DTD SVG 1.1//EN" "http://www.w3.org/Graphics/SVG/1.1/DTD/svg11.dtd">
<svg version="1.1" id="Layer_1" xmlns="http://www.w3.org/2000/svg" xmlns:xlink="http://www.w3.org/1999/xlink" x="0px" y="0px"
	 viewBox="177 0 638 666.7" enable-background="new 177 0 638 666.7" xml:space="preserve">
<path fill="#231F20" d="M399.1,640c-0.5-0.1-1.2-0.2-1.8-0.3l-1-0.3C397.2,639.6,398.1,639.9,399.1,640z"/>
<path fill="#231F20" d="M410.1,639.3l-0.9,0.3c-0.6,0.2-1.3,0.3-1.9,0.3C408.1,639.9,409.1,639.6,410.1,639.3z"/>
<g>
	<path fill="#FFFFFF" d="M760.1,219.6l-35.3-10c-11.2-3.2-22.9,3.3-26.1,14.5s3.3,22.9,14.6,26.1l9.8,2.8c6,1.7,10.2,7.2,10.2,13.4
		v297.4c0,9.3-8.9,16-17.8,13.4l-111.1-31.7c-6-1.7-10.1-7.2-10.1-13.4V391.7c0-5.6-3.3-10.9-8.6-12.9c-10-3.9-19.5,3.5-19.5,13
		v140.3c0,6.2-4.2,11.7-10.1,13.4l-118.1,33.7c-8.9,2.5-17.8-4.2-17.8-13.4V268.3c0-6.2,4.2-11.7,10.1-13.4l19.5-5.6
		c11.2-3.2,17.7-14.7,14.5-26c-3.2-11.3-14.7-17.7-26.1-14.6l-28.2,8.1c-2.5,0.7-5.1,0.7-7.7,0l-164.5-46.9
		c-6.3-1.8-13.2-0.5-18.5,3.4c-5.2,4-8.3,10.1-8.3,16.8v370.4c0,9.4,6.2,17.7,15.2,20.3l173.3,49.5c0.9,0.3,1.7,0.5,2.7,0.6
		c1.3,0.3,2.7,0.4,4.1,0.4c1.3,0,2.6-0.1,4-0.4c1-0.1,1.8-0.3,2.7-0.6l167.1-47.9h0.1l168.5,48.2c1.8,0.5,3.8,0.7,5.8,0.7
		c4.5,0,9-1.5,12.6-4.3c5.2-4.1,8.4-10.3,8.4-16.9V239.8C775.3,230.4,769,222.2,760.1,219.6z M374.1,579.2L263,547.6
		c-6-1.7-10.2-7.2-10.2-13.4V236.6c0-9.3,8.8-16,17.8-13.4l111.1,31.6c6,1.7,10.2,7.2,10.2,13.4v297.5
		C391.8,575.1,383,581.8,374.1,579.2z"/>
	<path fill="#FFFFFF" d="M583,35.6c-61.1-1.3-112.1,47.9-113.1,109c-0.4,21.9,5.6,43.2,17.5,61.6c0.1,0.1,0.1,0.1,0.1,0.2L563,324
		c4,6,10.6,9.7,17.7,9.7c7.2,0,13.9-3.6,17.7-9.7l75.5-117.5c11.4-17.8,17.6-38.6,17.6-60C691.7,86,643.2,36.8,583,35.6z
		 M580.7,191.2c-25.7,0-46.5-21.9-44.5-48c1.6-21.8,19.2-39.4,40.9-41.1c26.2-2,48.1,18.7,48.1,44.4
		C625.3,171,605.3,191.2,580.7,191.2z"/>
</g>
</svg>
