<?xml version="1.0" encoding="utf-8"?>
<!-- Generator: Adobe Illustrator 18.0.0, SVG Export Plug-In . SVG Version: 6.00 Build 0)  -->
<!DOCTYPE svg PUBLIC "-//W3C//DTD SVG 1.1//EN" "http://www.w3.org/Graphics/SVG/1.1/DTD/svg11.dtd">
<svg version="1.1" id="Layer_1" xmlns="http://www.w3.org/2000/svg" xmlns:xlink="http://www.w3.org/1999/xlink" x="0px" y="0px"
	 viewBox="0 0 144 144" enable-background="new 0 0 144 144" xml:space="preserve">
<path fill="#1F9BDE" d="M91.4,36.5l20.4,28.3c0.5,0.7,0.4,1.6-0.4,2.2l-56.6,40.7c-0.7,0.5-1.6,0.4-2.2-0.4L32.3,79.2
	c-0.5-0.7-0.4-1.6,0.4-2.2l56.6-40.7C90,35.8,90.9,35.9,91.4,36.5z M113.3,42.6c3.3,4.5,9.4,5.8,14.3,3.3c0.7-0.4,1.5-0.2,2,0.5
	l10.1,14c1.6,2.1,1,5.1-1.2,6.7l-92.3,66.5c-2.1,1.6-5.1,1-6.7-1.2l-10.3-14.5c-0.5-0.6-0.4-1.5,0.2-2.1c4.1-3.7,4.7-10,1.4-14.6
	c-3.3-4.5-9.4-5.8-14.3-3.3c-0.7,0.4-1.5,0.2-2-0.5L4.3,83.7c-1.6-2.1-1-5.1,1.2-6.7L98,10.4c2.1-1.6,5.1-1,6.7,1.2L115,26
	c0.5,0.6,0.4,1.5-0.2,2.1C110.8,31.8,110,38.1,113.3,42.6z M95.2,33.8c-2.1-2.8-6-3.5-8.8-1.4L29.9,73.2c-2.8,2.1-3.5,6-1.4,8.8
	l20.4,28.2c2.1,2.8,6,3.5,8.8,1.4l56.5-40.7c2.8-2.1,3.5-6,1.4-8.8L95.2,33.8z"/>
</svg>
